<?xml version="1.0" standalone="no"?>
<!DOCTYPE svg PUBLIC "-//W3C//DTD SVG 20010904//EN"
 "http://www.w3.org/TR/2001/REC-SVG-20010904/DTD/svg10.dtd">
<svg version="1.0" xmlns="http://www.w3.org/2000/svg"
 width="612.000000pt" height="612.000000pt" viewBox="0 0 612.000000 612.000000"
 preserveAspectRatio="xMidYMid meet">

<g transform="translate(0.000000,612.000000) scale(0.100000,-0.100000)"
fill="#000000" stroke="none">
<path d="M3885 5036 c-64 -30 -111 -79 -135 -142 -10 -27 -24 -48 -30 -46
-134 32 -257 -24 -316 -144 -23 -47 -26 -63 -22 -122 3 -44 13 -83 29 -112 21
-40 23 -56 20 -150 -7 -234 83 -413 244 -486 30 -14 55 -30 55 -36 0 -34 -278
-599 -333 -678 -73 -105 -129 -164 -138 -147 -5 7 -78 211 -164 453 -86 241
-164 460 -174 486 l-19 46 39 52 c176 234 180 591 10 782 -50 57 -158 113
-246 129 -113 21 -243 -4 -334 -64 -20 -13 -57 -27 -84 -31 -83 -13 -173 -101
-196 -193 -28 -110 0 -232 69 -301 l39 -39 -78 -6 c-286 -22 -546 -140 -742
-337 -78 -79 -116 -132 -168 -237 -79 -158 -121 -353 -121 -560 0 -104 -2
-123 -15 -123 -9 0 -38 -21 -65 -46 -77 -72 -115 -198 -72 -237 10 -10 25 -17
34 -17 21 0 48 33 48 59 0 43 48 131 72 131 4 0 8 -11 8 -24 0 -35 20 -87 48
-125 30 -40 113 -81 165 -81 l37 0 0 -765 0 -765 -175 0 c-162 0 -177 -2 -195
-20 -25 -25 -25 -42 -2 -63 17 -16 168 -17 1970 -17 l1951 0 15 22 c20 29 20
34 -4 58 -17 17 -33 20 -105 20 l-85 0 0 155 0 155 34 0 c45 0 82 14 90 35 5
14 -113 920 -129 992 -4 18 2 25 30 39 19 9 48 31 65 50 48 55 54 97 41 271
-29 403 -110 712 -247 942 -63 107 -190 242 -287 305 l-76 50 40 43 c54 58 80
123 86 209 7 98 -15 162 -80 231 -47 50 -49 54 -38 84 28 80 7 178 -53 246
-80 91 -206 119 -311 69z m179 -90 c41 -17 83 -71 93 -117 l6 -34 -38 34 c-55
48 -113 71 -184 73 -68 2 -73 12 -21 40 41 22 98 23 144 4z m-1319 -143 c28
-9 67 -28 88 -41 150 -100 187 -394 77 -613 -111 -220 -318 -263 -481 -99 -68
67 -105 138 -125 234 -9 40 -24 80 -35 92 -25 26 -23 77 3 82 19 4 48 -24 82
-78 28 -45 51 -49 88 -13 47 44 81 120 82 181 0 52 0 53 -62 110 -76 71 -80
92 -19 124 92 48 195 55 302 21z m1292 -31 c29 -20 39 -39 59 -107 6 -21 21
-36 51 -50 22 -11 51 -29 63 -40 54 -48 74 -148 46 -228 -15 -41 -62 -107 -77
-107 -5 0 -9 32 -9 70 0 81 -16 128 -54 157 -14 12 -71 35 -126 53 -54 17
-125 47 -156 66 -65 39 -72 40 -122 15 -46 -23 -212 -74 -219 -67 -3 3 -8 25
-10 49 -9 79 46 151 131 171 17 4 50 0 82 -10 l54 -17 34 27 c53 40 75 46 152
43 53 -3 79 -9 101 -25z m-1722 -92 c10 -22 38 -58 62 -80 32 -30 43 -48 43
-70 0 -38 -13 -45 -36 -19 -43 48 -114 62 -164 34 -34 -20 -40 -19 -40 8 0 67
63 167 104 167 7 0 21 -18 31 -40z m1488 -194 c23 -14 89 -40 146 -60 56 -19
106 -38 110 -41 3 -4 6 -52 5 -108 0 -115 -20 -183 -74 -261 -100 -146 -292
-143 -387 7 -52 82 -68 143 -68 262 0 138 10 157 87 175 29 7 69 21 88 31 45
23 44 23 93 -5z m-1562 -343 c16 -36 31 -121 60 -347 22 -164 44 -305 50 -312
16 -19 56 -17 75 4 9 9 69 93 134 186 l118 168 68 23 c38 13 72 20 75 17 4 -4
37 -92 74 -197 37 -104 87 -246 112 -315 25 -69 71 -199 103 -290 32 -91 63
-178 69 -193 6 -16 11 -34 11 -41 0 -16 -180 -100 -190 -89 -7 7 -37 93 -210
598 -71 208 -91 234 -140 185 -19 -19 -20 -33 -20 -365 l0 -345 -485 0 -485 0
0 428 c0 468 0 472 -57 472 -38 0 -106 -75 -133 -146 -42 -113 -52 -168 -57
-321 l-6 -153 -110 0 -110 0 6 113 c23 397 183 664 507 840 123 68 332 123
472 126 47 1 47 1 69 -46z m1961 -88 c228 -115 399 -378 482 -743 48 -211 78
-484 66 -596 -10 -92 -19 -96 -207 -96 -120 0 -153 3 -149 13 2 6 16 48 30 92
74 235 75 515 1 770 -27 92 -113 285 -142 317 -23 25 -60 23 -78 -6 -15 -23
-13 -29 34 -122 103 -203 148 -406 138 -624 -5 -107 -28 -265 -42 -278 -3 -3
-195 57 -195 61 0 1 7 37 15 80 42 219 2 476 -106 676 -48 90 -75 121 -104
121 -54 0 -58 -49 -11 -123 78 -122 125 -276 133 -434 7 -136 -6 -228 -54
-373 -22 -69 -32 -116 -29 -137 l5 -33 -95 0 c-53 0 -104 5 -116 11 -39 21
-47 63 -36 199 16 197 7 318 -32 420 -46 122 -41 170 38 337 33 70 67 149 77
176 11 29 24 47 34 47 32 0 122 50 169 94 27 26 62 73 81 111 18 36 35 65 38
65 3 0 27 -11 55 -25z m-1679 -184 c34 -12 36 -14 24 -35 -19 -34 -120 -176
-123 -173 -3 3 -34 243 -34 264 0 8 18 2 48 -16 26 -15 65 -34 85 -40z m-971
-1546 l-2 -1165 -50 0 -50 0 0 794 c0 527 3 797 10 801 6 4 20 25 33 48 21 40
22 52 22 312 0 188 4 286 14 323 7 28 16 52 19 52 4 0 6 -524 4 -1165z m2094
770 c6 -51 4 -59 -29 -108 -33 -49 -126 -149 -229 -246 l-47 -44 -14 34 c-7
19 -16 55 -19 81 -5 45 -4 48 40 90 60 58 155 186 205 277 l41 75 23 -52 c13
-29 26 -77 29 -107z m-826 -137 c41 -122 76 -236 77 -253 1 -16 16 -68 32
-114 45 -126 109 -182 210 -183 90 0 177 58 206 140 5 15 60 73 121 129 61 56
123 116 137 133 14 16 28 30 31 30 2 0 4 -42 3 -92 -2 -83 1 -98 24 -138 l25
-45 -72 -520 c-40 -286 -70 -528 -67 -538 8 -29 46 -37 179 -37 l124 0 0 -54
c0 -72 -15 -86 -88 -86 -77 0 -136 -30 -173 -88 -16 -25 -29 -54 -29 -64 0
-17 -16 -18 -270 -18 l-270 0 0 25 c0 13 -7 43 -16 65 -21 51 -73 83 -174 106
-41 9 -81 21 -87 26 -10 8 -13 201 -13 904 0 492 3 894 8 894 4 0 41 -100 82
-222z m-1403 -27 c-6 -83 -26 -117 -77 -132 -32 -10 -44 -9 -77 7 -44 22 -62
61 -62 142 l-1 52 111 0 111 0 -5 -69z m2793 -220 c77 -26 85 -31 82 -52 -3
-32 -33 -71 -67 -88 -58 -28 -138 22 -138 87 0 43 12 82 26 82 7 0 51 -13 97
-29z m-1580 -644 l0 -662 -22 -10 c-12 -6 -30 -22 -41 -37 -43 -59 14 -113 73
-69 29 21 29 21 62 2 18 -10 67 -26 108 -35 91 -20 96 -23 105 -63 l7 -33
-196 0 -196 0 0 35 c0 84 -49 126 -183 159 l-92 23 -5 589 c-3 324 -9 595 -13
602 -10 15 -59 16 -75 0 -9 -9 -12 -156 -12 -600 l0 -588 -33 0 c-45 0 -185
-36 -214 -55 -28 -19 -30 -59 -3 -78 17 -11 32 -10 112 11 104 27 189 26 317
-3 78 -18 101 -34 101 -71 l0 -24 -385 0 -385 0 0 785 0 785 485 0 485 0 0
-663z m604 620 c29 -76 17 -136 -33 -162 -71 -36 -138 -8 -165 71 l-15 45 92
44 c51 24 95 44 98 44 4 1 14 -18 23 -42z m1140 -179 c7 -13 17 -39 20 -59 4
-24 14 -39 29 -46 48 -21 77 12 69 80 l-4 37 60 0 60 0 6 -37 c4 -21 31 -218
61 -438 31 -220 58 -415 61 -432 l6 -33 -291 0 -291 0 0 440 0 440 23 0 c38 0
93 19 128 44 43 31 46 31 63 4z m-316 -460 l2 -468 -205 0 -205 0 5 23 c2 12
14 90 25 172 10 83 38 281 60 440 22 160 40 294 40 298 0 4 62 6 138 5 l137
-3 3 -467z m562 -734 l0 -154 -200 0 c-110 0 -200 2 -200 4 0 38 52 66 122 66
107 0 168 66 168 182 l0 57 48 3 c26 2 50 2 55 0 4 -2 7 -73 7 -158z m-560 1
l0 -155 -200 0 c-114 0 -200 4 -200 9 0 5 14 21 31 35 25 21 41 26 87 26 69 0
118 23 149 69 18 27 23 48 23 102 l0 69 55 0 55 0 0 -155z m350 103 c0 -70
-17 -88 -87 -88 -56 0 -114 -19 -145 -47 -17 -15 -18 -11 -18 85 l0 102 125 0
125 0 0 -52z"/>
<path d="M5110 1170 c-11 -11 -20 -26 -20 -33 0 -24 31 -57 55 -57 52 0 74 65
33 94 -30 21 -44 20 -68 -4z"/>
</g>
</svg>
